<svg xmlns="http://www.w3.org/2000/svg" width="1320" height="770" viewBox="0 0 1320 770">
<rect width="100%" height="100%" fill="white"/>
<style>text{font-family:system-ui,sans-serif;fill:#202124}.grid{stroke:#e3e3e3}.line{fill:none;stroke-width:2}.axis{stroke:#666}</style>
<title>Cold construction phases and conservative whole-process RSS</title>
<metadata>source construction.csv sha256=c014dc039f394f016ccfbab8449baf6bd130cde99166a3b4900ac928608d6849; publisher sha256=78d036f1b82d835744778d8df98b3d6a6e1a25d1228b64e3c971457d38d67ea3</metadata>
<text x="660" y="27" text-anchor="middle" font-size="18" font-weight="600">Cold construction and resident-capacity indicators</text>
<text x="660" y="48" text-anchor="middle" font-size="12">Timing-profile construction medians; RSS includes the oracle and peak RSS includes generation.</text>
<text x="380.0" y="65" text-anchor="middle" font-size="14" font-weight="600">materialized phases</text><rect x="100" y="80" width="560" height="250" fill="none" stroke="#bbb"/>
<line class="grid" x1="100" y1="330.00" x2="660" y2="330.00"/><text x="93" y="334.00" text-anchor="end" font-size="9">10^-3.6</text>
<line class="grid" x1="100" y1="267.50" x2="660" y2="267.50"/><text x="93" y="271.50" text-anchor="end" font-size="9">10^-1.7</text>
<line class="grid" x1="100" y1="205.00" x2="660" y2="205.00"/><text x="93" y="209.00" text-anchor="end" font-size="9">10^0.2</text>
<line class="grid" x1="100" y1="142.50" x2="660" y2="142.50"/><text x="93" y="146.50" text-anchor="end" font-size="9">10^2.1</text>
<line class="grid" x1="100" y1="80.00" x2="660" y2="80.00"/><text x="93" y="84.00" text-anchor="end" font-size="9">10^4.0</text>
<polyline class="line" stroke="#2166ac" points="100.00,207.28 252.73,182.23 405.45,153.41 558.18,123.78 660.00,104.02"/><text x="664.00" y="107.02" font-size="8">health WAC</text>
<circle cx="100.00" cy="207.28" r="2.5" fill="#2166ac"/>
<circle cx="252.73" cy="182.23" r="2.5" fill="#2166ac"/>
<circle cx="405.45" cy="153.41" r="2.5" fill="#2166ac"/>
<circle cx="558.18" cy="123.78" r="2.5" fill="#2166ac"/>
<circle cx="660.00" cy="104.02" r="2.5" fill="#2166ac"/>
<polyline class="line" stroke="#2166ac" stroke-dasharray="5 3" points="100.00,205.29 252.73,177.20 405.45,147.90 558.18,118.41 660.00,98.60"/><text x="664.00" y="101.60" font-size="8">health load</text>
<circle cx="100.00" cy="205.29" r="2.5" fill="#2166ac"/>
<circle cx="252.73" cy="177.20" r="2.5" fill="#2166ac"/>
<circle cx="405.45" cy="147.90" r="2.5" fill="#2166ac"/>
<circle cx="558.18" cy="118.41" r="2.5" fill="#2166ac"/>
<circle cx="660.00" cy="98.60" r="2.5" fill="#2166ac"/>
<polyline class="line" stroke="#2166ac" stroke-dasharray="2 3" points="100.00,312.85 252.73,305.81 405.45,289.59 558.18,262.12 660.00,242.28"/><text x="664.00" y="245.28" font-size="8">health route</text>
<circle cx="100.00" cy="312.85" r="2.5" fill="#2166ac"/>
<circle cx="252.73" cy="305.81" r="2.5" fill="#2166ac"/>
<circle cx="405.45" cy="289.59" r="2.5" fill="#2166ac"/>
<circle cx="558.18" cy="262.12" r="2.5" fill="#2166ac"/>
<circle cx="660.00" cy="242.28" r="2.5" fill="#2166ac"/>
<polyline class="line" stroke="#b2182b" stroke-dasharray="7 3 2 3" points="100.00,207.14 252.73,182.23 405.45,153.49 558.18,123.75 660.00,104.02"/><text x="664.00" y="107.02" font-size="8">social WAC</text>
<circle cx="100.00" cy="207.14" r="2.5" fill="#b2182b"/>
<circle cx="252.73" cy="182.23" r="2.5" fill="#b2182b"/>
<circle cx="405.45" cy="153.49" r="2.5" fill="#b2182b"/>
<circle cx="558.18" cy="123.75" r="2.5" fill="#b2182b"/>
<circle cx="660.00" cy="104.02" r="2.5" fill="#b2182b"/>
<polyline class="line" stroke="#b2182b" stroke-dasharray="10 3" points="100.00,204.86 252.73,177.08 405.45,147.79 558.18,118.34 660.00,98.52"/><text x="664.00" y="101.52" font-size="8">social load</text>
<circle cx="100.00" cy="204.86" r="2.5" fill="#b2182b"/>
<circle cx="252.73" cy="177.08" r="2.5" fill="#b2182b"/>
<circle cx="405.45" cy="147.79" r="2.5" fill="#b2182b"/>
<circle cx="558.18" cy="118.34" r="2.5" fill="#b2182b"/>
<circle cx="660.00" cy="98.52" r="2.5" fill="#b2182b"/>
<polyline class="line" stroke="#b2182b" stroke-dasharray="3 2" points="100.00,311.36 252.73,304.84 405.45,286.69 558.18,258.52 660.00,238.70"/><text x="664.00" y="241.70" font-size="8">social route</text>
<circle cx="100.00" cy="311.36" r="2.5" fill="#b2182b"/>
<circle cx="252.73" cy="304.84" r="2.5" fill="#b2182b"/>
<circle cx="405.45" cy="286.69" r="2.5" fill="#b2182b"/>
<circle cx="558.18" cy="258.52" r="2.5" fill="#b2182b"/>
<circle cx="660.00" cy="238.70" r="2.5" fill="#b2182b"/>
<text x="380.0" y="353" text-anchor="middle" font-size="11">resident Pods (log)</text><text x="42" y="205.0" transform="rotate(-90 42 205.0)" text-anchor="middle" font-size="11">milliseconds (log)</text>
<text x="1030.0" y="65" text-anchor="middle" font-size="14" font-weight="600">native service seeding</text><rect x="750" y="80" width="560" height="250" fill="none" stroke="#bbb"/>
<line class="grid" x1="750" y1="330.00" x2="1310" y2="330.00"/><text x="743" y="334.00" text-anchor="end" font-size="9">10^-1.2</text>
<line class="grid" x1="750" y1="267.50" x2="1310" y2="267.50"/><text x="743" y="271.50" text-anchor="end" font-size="9">10^-0.2</text>
<line class="grid" x1="750" y1="205.00" x2="1310" y2="205.00"/><text x="743" y="209.00" text-anchor="end" font-size="9">10^0.8</text>
<line class="grid" x1="750" y1="142.50" x2="1310" y2="142.50"/><text x="743" y="146.50" text-anchor="end" font-size="9">10^1.7</text>
<line class="grid" x1="750" y1="80.00" x2="1310" y2="80.00"/><text x="743" y="84.00" text-anchor="end" font-size="9">10^2.7</text>
<polyline class="line" stroke="#2166ac" points="750.00,312.85 902.73,257.81 1055.45,199.42 1208.18,139.68 1310.00,98.75"/><text x="1314.00" y="101.75" font-size="8">health</text>
<circle cx="750.00" cy="312.85" r="2.5" fill="#2166ac"/>
<circle cx="902.73" cy="257.81" r="2.5" fill="#2166ac"/>
<circle cx="1055.45" cy="199.42" r="2.5" fill="#2166ac"/>
<circle cx="1208.18" cy="139.68" r="2.5" fill="#2166ac"/>
<circle cx="1310.00" cy="98.75" r="2.5" fill="#2166ac"/>
<polyline class="line" stroke="#b2182b" stroke-dasharray="5 3" points="750.00,311.77 902.73,257.61 1055.45,199.46 1208.18,139.78 1310.00,98.52"/><text x="1314.00" y="101.52" font-size="8">social</text>
<circle cx="750.00" cy="311.77" r="2.5" fill="#b2182b"/>
<circle cx="902.73" cy="257.61" r="2.5" fill="#b2182b"/>
<circle cx="1055.45" cy="199.46" r="2.5" fill="#b2182b"/>
<circle cx="1208.18" cy="139.78" r="2.5" fill="#b2182b"/>
<circle cx="1310.00" cy="98.52" r="2.5" fill="#b2182b"/>
<text x="1030.0" y="353" text-anchor="middle" font-size="11">resident Pods (log)</text><text x="692" y="205.0" transform="rotate(-90 692 205.0)" text-anchor="middle" font-size="11">milliseconds (log)</text>
<text x="380.0" y="390" text-anchor="middle" font-size="14" font-weight="600">resident memory</text><rect x="100" y="405" width="560" height="250" fill="none" stroke="#bbb"/>
<line class="grid" x1="100" y1="655.00" x2="660" y2="655.00"/><text x="93" y="659.00" text-anchor="end" font-size="9">10^-2.0</text>
<line class="grid" x1="100" y1="592.50" x2="660" y2="592.50"/><text x="93" y="596.50" text-anchor="end" font-size="9">10^-1.5</text>
<line class="grid" x1="100" y1="530.00" x2="660" y2="530.00"/><text x="93" y="534.00" text-anchor="end" font-size="9">10^-1.1</text>
<line class="grid" x1="100" y1="467.50" x2="660" y2="467.50"/><text x="93" y="471.50" text-anchor="end" font-size="9">10^-0.7</text>
<line class="grid" x1="100" y1="405.00" x2="660" y2="405.00"/><text x="93" y="409.00" text-anchor="end" font-size="9">10^-0.2</text>
<polyline class="line" stroke="#2166ac" points="100.00,637.85 252.73,629.93 405.45,588.22 558.18,523.21 660.00,460.43"/><text x="664.00" y="463.43" font-size="8">http health current</text>
<circle cx="100.00" cy="637.85" r="2.5" fill="#2166ac"/>
<circle cx="252.73" cy="629.93" r="2.5" fill="#2166ac"/>
<circle cx="405.45" cy="588.22" r="2.5" fill="#2166ac"/>
<circle cx="558.18" cy="523.21" r="2.5" fill="#2166ac"/>
<circle cx="660.00" cy="460.43" r="2.5" fill="#2166ac"/>
<polyline class="line" stroke="#2166ac" stroke-dasharray="5 3" points="100.00,637.85 252.73,629.93 405.45,588.22 558.18,522.26 660.00,458.70"/><text x="664.00" y="461.70" font-size="8">http health peak</text>
<circle cx="100.00" cy="637.85" r="2.5" fill="#2166ac"/>
<circle cx="252.73" cy="629.93" r="2.5" fill="#2166ac"/>
<circle cx="405.45" cy="588.22" r="2.5" fill="#2166ac"/>
<circle cx="558.18" cy="522.26" r="2.5" fill="#2166ac"/>
<circle cx="660.00" cy="458.70" r="2.5" fill="#2166ac"/>
<polyline class="line" stroke="#b2182b" stroke-dasharray="2 3" points="100.00,637.59 252.73,629.70 405.45,588.10 558.18,521.68 660.00,460.36"/><text x="664.00" y="463.36" font-size="8">http social current</text>
<circle cx="100.00" cy="637.59" r="2.5" fill="#b2182b"/>
<circle cx="252.73" cy="629.70" r="2.5" fill="#b2182b"/>
<circle cx="405.45" cy="588.10" r="2.5" fill="#b2182b"/>
<circle cx="558.18" cy="521.68" r="2.5" fill="#b2182b"/>
<circle cx="660.00" cy="460.36" r="2.5" fill="#b2182b"/>
<polyline class="line" stroke="#b2182b" stroke-dasharray="7 3 2 3" points="100.00,637.59 252.73,629.70 405.45,588.10 558.18,519.63 660.00,458.77"/><text x="664.00" y="461.77" font-size="8">http social peak</text>
<circle cx="100.00" cy="637.59" r="2.5" fill="#b2182b"/>
<circle cx="252.73" cy="629.70" r="2.5" fill="#b2182b"/>
<circle cx="405.45" cy="588.10" r="2.5" fill="#b2182b"/>
<circle cx="558.18" cy="519.63" r="2.5" fill="#b2182b"/>
<circle cx="660.00" cy="458.77" r="2.5" fill="#b2182b"/>
<polyline class="line" stroke="#2166ac" stroke-dasharray="10 3" points="100.00,624.93 252.73,624.89 405.45,593.34 558.18,501.33 660.00,423.52"/><text x="664.00" y="426.52" font-size="8">materialized health current</text>
<circle cx="100.00" cy="624.93" r="2.5" fill="#2166ac"/>
<circle cx="252.73" cy="624.89" r="2.5" fill="#2166ac"/>
<circle cx="405.45" cy="593.34" r="2.5" fill="#2166ac"/>
<circle cx="558.18" cy="501.33" r="2.5" fill="#2166ac"/>
<circle cx="660.00" cy="423.52" r="2.5" fill="#2166ac"/>
<polyline class="line" stroke="#2166ac" stroke-dasharray="3 2" points="100.00,624.93 252.73,624.89 405.45,593.34 558.18,501.33 660.00,423.52"/><text x="664.00" y="426.52" font-size="8">materialized health peak</text>
<circle cx="100.00" cy="624.93" r="2.5" fill="#2166ac"/>
<circle cx="252.73" cy="624.89" r="2.5" fill="#2166ac"/>
<circle cx="405.45" cy="593.34" r="2.5" fill="#2166ac"/>
<circle cx="558.18" cy="501.33" r="2.5" fill="#2166ac"/>
<circle cx="660.00" cy="423.52" r="2.5" fill="#2166ac"/>
<polyline class="line" stroke="#b2182b" points="100.00,625.13 252.73,625.10 405.45,593.46 558.18,501.71 660.00,423.70"/><text x="664.00" y="426.70" font-size="8">materialized social current</text>
<circle cx="100.00" cy="625.13" r="2.5" fill="#b2182b"/>
<circle cx="252.73" cy="625.10" r="2.5" fill="#b2182b"/>
<circle cx="405.45" cy="593.46" r="2.5" fill="#b2182b"/>
<circle cx="558.18" cy="501.71" r="2.5" fill="#b2182b"/>
<circle cx="660.00" cy="423.70" r="2.5" fill="#b2182b"/>
<polyline class="line" stroke="#b2182b" stroke-dasharray="5 3" points="100.00,625.13 252.73,625.10 405.45,593.46 558.18,501.71 660.00,423.70"/><text x="664.00" y="426.70" font-size="8">materialized social peak</text>
<circle cx="100.00" cy="625.13" r="2.5" fill="#b2182b"/>
<circle cx="252.73" cy="625.10" r="2.5" fill="#b2182b"/>
<circle cx="405.45" cy="593.46" r="2.5" fill="#b2182b"/>
<circle cx="558.18" cy="501.71" r="2.5" fill="#b2182b"/>
<circle cx="660.00" cy="423.70" r="2.5" fill="#b2182b"/>
<text x="380.0" y="678" text-anchor="middle" font-size="11">resident Pods (log)</text><text x="42" y="530.0" transform="rotate(-90 42 530.0)" text-anchor="middle" font-size="11">GiB (log)</text>
<text x="1030.0" y="390" text-anchor="middle" font-size="14" font-weight="600">resident memory vs content</text><rect x="750" y="405" width="560" height="250" fill="none" stroke="#bbb"/>
<line class="grid" x1="750" y1="655.00" x2="1310" y2="655.00"/><text x="743" y="659.00" text-anchor="end" font-size="9">10^-2.0</text>
<line class="grid" x1="750" y1="592.50" x2="1310" y2="592.50"/><text x="743" y="596.50" text-anchor="end" font-size="9">10^-1.5</text>
<line class="grid" x1="750" y1="530.00" x2="1310" y2="530.00"/><text x="743" y="534.00" text-anchor="end" font-size="9">10^-1.1</text>
<line class="grid" x1="750" y1="467.50" x2="1310" y2="467.50"/><text x="743" y="471.50" text-anchor="end" font-size="9">10^-0.7</text>
<line class="grid" x1="750" y1="405.00" x2="1310" y2="405.00"/><text x="743" y="409.00" text-anchor="end" font-size="9">10^-0.2</text>
<polyline class="line" stroke="#2166ac" points="750.00,637.85 902.73,629.93 1055.45,588.22 1208.18,523.21 1310.00,460.43"/><text x="1314.00" y="463.43" font-size="8">http health current</text>
<circle cx="750.00" cy="637.85" r="2.5" fill="#2166ac"/>
<circle cx="902.73" cy="629.93" r="2.5" fill="#2166ac"/>
<circle cx="1055.45" cy="588.22" r="2.5" fill="#2166ac"/>
<circle cx="1208.18" cy="523.21" r="2.5" fill="#2166ac"/>
<circle cx="1310.00" cy="460.43" r="2.5" fill="#2166ac"/>
<polyline class="line" stroke="#2166ac" stroke-dasharray="5 3" points="750.00,637.85 902.73,629.93 1055.45,588.22 1208.18,522.26 1310.00,458.70"/><text x="1314.00" y="461.70" font-size="8">http health peak</text>
<circle cx="750.00" cy="637.85" r="2.5" fill="#2166ac"/>
<circle cx="902.73" cy="629.93" r="2.5" fill="#2166ac"/>
<circle cx="1055.45" cy="588.22" r="2.5" fill="#2166ac"/>
<circle cx="1208.18" cy="522.26" r="2.5" fill="#2166ac"/>
<circle cx="1310.00" cy="458.70" r="2.5" fill="#2166ac"/>
<polyline class="line" stroke="#b2182b" stroke-dasharray="2 3" points="750.00,637.59 902.73,629.70 1055.45,588.10 1208.18,521.68 1310.00,460.36"/><text x="1314.00" y="463.36" font-size="8">http social current</text>
<circle cx="750.00" cy="637.59" r="2.5" fill="#b2182b"/>
<circle cx="902.73" cy="629.70" r="2.5" fill="#b2182b"/>
<circle cx="1055.45" cy="588.10" r="2.5" fill="#b2182b"/>
<circle cx="1208.18" cy="521.68" r="2.5" fill="#b2182b"/>
<circle cx="1310.00" cy="460.36" r="2.5" fill="#b2182b"/>
<polyline class="line" stroke="#b2182b" stroke-dasharray="7 3 2 3" points="750.00,637.59 902.73,629.70 1055.45,588.10 1208.18,519.63 1310.00,458.77"/><text x="1314.00" y="461.77" font-size="8">http social peak</text>
<circle cx="750.00" cy="637.59" r="2.5" fill="#b2182b"/>
<circle cx="902.73" cy="629.70" r="2.5" fill="#b2182b"/>
<circle cx="1055.45" cy="588.10" r="2.5" fill="#b2182b"/>
<circle cx="1208.18" cy="519.63" r="2.5" fill="#b2182b"/>
<circle cx="1310.00" cy="458.77" r="2.5" fill="#b2182b"/>
<polyline class="line" stroke="#2166ac" stroke-dasharray="10 3" points="750.00,624.93 902.73,624.89 1055.45,593.34 1208.18,501.33 1310.00,423.52"/><text x="1314.00" y="426.52" font-size="8">materialized health current</text>
<circle cx="750.00" cy="624.93" r="2.5" fill="#2166ac"/>
<circle cx="902.73" cy="624.89" r="2.5" fill="#2166ac"/>
<circle cx="1055.45" cy="593.34" r="2.5" fill="#2166ac"/>
<circle cx="1208.18" cy="501.33" r="2.5" fill="#2166ac"/>
<circle cx="1310.00" cy="423.52" r="2.5" fill="#2166ac"/>
<polyline class="line" stroke="#2166ac" stroke-dasharray="3 2" points="750.00,624.93 902.73,624.89 1055.45,593.34 1208.18,501.33 1310.00,423.52"/><text x="1314.00" y="426.52" font-size="8">materialized health peak</text>
<circle cx="750.00" cy="624.93" r="2.5" fill="#2166ac"/>
<circle cx="902.73" cy="624.89" r="2.5" fill="#2166ac"/>
<circle cx="1055.45" cy="593.34" r="2.5" fill="#2166ac"/>
<circle cx="1208.18" cy="501.33" r="2.5" fill="#2166ac"/>
<circle cx="1310.00" cy="423.52" r="2.5" fill="#2166ac"/>
<polyline class="line" stroke="#b2182b" points="750.00,625.13 902.73,625.10 1055.45,593.46 1208.18,501.71 1310.00,423.70"/><text x="1314.00" y="426.70" font-size="8">materialized social current</text>
<circle cx="750.00" cy="625.13" r="2.5" fill="#b2182b"/>
<circle cx="902.73" cy="625.10" r="2.5" fill="#b2182b"/>
<circle cx="1055.45" cy="593.46" r="2.5" fill="#b2182b"/>
<circle cx="1208.18" cy="501.71" r="2.5" fill="#b2182b"/>
<circle cx="1310.00" cy="423.70" r="2.5" fill="#b2182b"/>
<polyline class="line" stroke="#b2182b" stroke-dasharray="5 3" points="750.00,625.13 902.73,625.10 1055.45,593.46 1208.18,501.71 1310.00,423.70"/><text x="1314.00" y="426.70" font-size="8">materialized social peak</text>
<circle cx="750.00" cy="625.13" r="2.5" fill="#b2182b"/>
<circle cx="902.73" cy="625.10" r="2.5" fill="#b2182b"/>
<circle cx="1055.45" cy="593.46" r="2.5" fill="#b2182b"/>
<circle cx="1208.18" cy="501.71" r="2.5" fill="#b2182b"/>
<circle cx="1310.00" cy="423.70" r="2.5" fill="#b2182b"/>
<text x="1030.0" y="678" text-anchor="middle" font-size="11">realized content triples (log)</text><text x="692" y="530.0" transform="rotate(-90 692 530.0)" text-anchor="middle" font-size="11">GiB (log)</text>
<text x="660" y="750" text-anchor="middle" font-size="10">Lines connect descriptive medians for every P level; no fitted linear model or capacity limit is inferred.</text></svg>
